<svg width="75" height="75" viewBox="0 0 75 75" fill="none" xmlns="http://www.w3.org/2000/svg">
<rect width="75" height="75" rx="37.5" fill="#2447F9"/>
<path d="M53.3744 42.1862L53.7412 38.7768C53.9368 36.9578 54.066 35.7566 53.9646 34.9998L54 35C55.6568 35 57 33.6569 57 32C57 30.3431 55.6568 29 54 29C52.3432 29 51 30.3431 51 32C51 32.7493 51.2748 33.4345 51.729 33.9603C51.0768 34.3628 50.2244 35.212 48.941 36.4902C47.9524 37.475 47.458 37.9674 46.9066 38.0438C46.601 38.086 46.2898 38.0426 46.0076 37.9184C45.4984 37.694 45.1588 37.0854 44.4798 35.868L40.901 29.4508C40.482 28.6997 40.1314 28.0711 39.8154 27.5653C41.112 26.9037 42 25.5556 42 24C42 21.7909 40.2092 20 38 20C35.7908 20 34 21.7909 34 24C34 25.5556 34.888 26.9037 36.1846 27.5653C35.8686 28.0712 35.518 28.6997 35.099 29.4508L31.5201 35.868C30.8411 37.0854 30.5016 37.694 29.9924 37.9184C29.7103 38.0426 29.3989 38.086 29.0934 38.0438C28.5419 37.9674 28.0476 37.475 27.059 36.4902C25.7757 35.212 24.9231 34.3628 24.2711 33.9602C24.7253 33.4345 25 32.7493 25 32C25 30.3431 23.6569 29 22 29C20.3431 29 19 30.3431 19 32C19 33.6569 20.3431 35 22 35L22.0354 34.9998C21.934 35.7566 22.0632 36.9578 22.2589 38.7768L22.6256 42.1862C22.8292 44.0786 22.9984 45.8792 23.2057 47.5H52.7942C53.0016 45.8792 53.1708 44.0786 53.3744 42.1862Z" fill="white"/>
<path d="M35.824 56H40.1756C45.8476 56 48.6834 56 50.5756 54.3064C51.4016 53.567 51.9244 52.2344 52.3018 50.5H23.6978C24.0751 52.2344 24.5981 53.567 25.424 54.3064C27.3162 56 30.1521 56 35.824 56Z" fill="white"/>
</svg>
