<svg width="25" height="26" viewBox="0 0 25 26" fill="none" xmlns="http://www.w3.org/2000/svg">
<path d="M17.279 4.34824L20.8835 8.08624C21.6935 8.88424 21.6935 10.2282 20.8835 11.0262L11.4875 20.7282V11.8662V7.37224L14.4035 4.30624C15.173 3.50824 16.5095 3.50824 17.279 4.34824Z" fill="#34364A"/>
<path d="M7.38027 0.399902H2.35865C1.23381 0.399902 0.350006 1.3239 0.350006 2.4999V20.8959C0.350006 23.4999 2.35865 25.5999 4.84937 25.5999C7.3401 25.5999 9.34874 23.4999 9.34874 20.8959V2.4999C9.38892 1.3239 8.46494 0.399902 7.38027 0.399902ZM4.84937 22.9959C3.72453 22.9959 2.84073 22.0719 2.84073 20.8959C2.84073 19.7199 3.72453 18.7959 4.84937 18.7959C5.97422 18.7959 6.85802 19.7199 6.85802 20.8959C6.85802 22.0719 5.97422 22.9959 4.84937 22.9959Z" fill="#34364A"/>
<path d="M22.625 16.1499H19.061L16.631 18.6699H22.22L22.1795 23.0799H12.419L9.98901 25.5999H22.625C23.759 25.5999 24.65 24.6759 24.65 23.4999V18.2499C24.65 17.1159 23.759 16.1499 22.625 16.1499Z" fill="#34364A"/>
</svg>
