<svg width="32" height="32" viewBox="0 0 32 32" fill="none" xmlns="http://www.w3.org/2000/svg">
<path d="M28.96 16.2643V18.2356C28.96 23.2911 28.96 25.8189 27.4416 27.3894C25.9234 28.96 23.4795 28.96 18.592 28.96H13.408C8.52048 28.96 6.07673 28.96 4.55836 27.3894C3.04001 25.8189 3.04001 23.2911 3.04001 18.2356V16.2643C3.04001 13.2985 3.04001 11.8156 3.71289 10.5863C4.38578 9.35702 5.6151 8.59406 8.07371 7.06818L10.6657 5.4595C13.2647 3.84653 14.5642 3.04004 16 3.04004C17.4358 3.04004 18.7353 3.84653 21.3343 5.4595L23.9263 7.06816C26.385 8.59406 27.6142 9.35702 28.2871 10.5863" stroke="#2447F9" stroke-width="1.944" stroke-linecap="round"/>
<path d="M19.888 23.7761H12.112" stroke="#2447F9" stroke-width="1.944" stroke-linecap="round"/>
</svg>
