<svg width="34" height="34" viewBox="0 0 34 34" fill="none" xmlns="http://www.w3.org/2000/svg">
<path d="M19.869 2.50977C20.0881 2.50977 20.3016 2.57933 20.4787 2.70841C20.6557 2.83749 20.7873 3.01944 20.8543 3.22806L21.9928 6.76569C22.471 6.9996 22.9284 7.26249 23.3652 7.5585L27.0001 6.77604C27.2145 6.73028 27.4378 6.75373 27.6379 6.84301C27.838 6.93229 28.0047 7.08279 28.1138 7.27284L30.9828 12.2388C31.0924 12.4287 31.1388 12.6485 31.1153 12.8665C31.0919 13.0845 30.9998 13.2895 30.8524 13.4518L28.3581 16.2049C28.3944 16.7328 28.3944 17.2626 28.3581 17.7905L30.8524 20.5477C30.9998 20.7101 31.0919 20.915 31.1153 21.133C31.1388 21.351 31.0924 21.5708 30.9828 21.7608L28.1138 26.7288C28.0044 26.9184 27.8376 27.0685 27.6375 27.1574C27.4374 27.2463 27.2142 27.2694 27.0001 27.2235L23.3652 26.441C22.9305 26.735 22.471 26.9999 21.9949 27.2338L20.8543 30.7715C20.7873 30.9801 20.6557 31.162 20.4787 31.2911C20.3016 31.4202 20.0881 31.4898 19.869 31.4898H14.1309C13.9118 31.4898 13.6984 31.4202 13.5213 31.2911C13.3442 31.162 13.2127 30.9801 13.1456 30.7715L12.0092 27.2359C11.5323 27.0027 11.0723 26.7364 10.6326 26.439L6.9998 27.2235C6.78548 27.2693 6.56217 27.2458 6.36203 27.1565C6.16189 27.0672 5.99526 26.9167 5.88614 26.7267L3.01712 21.7608C2.90756 21.5708 2.86116 21.351 2.88459 21.133C2.90803 20.915 3.0001 20.7101 3.14753 20.5477L5.64188 17.7905C5.60574 17.264 5.60574 16.7356 5.64188 16.209L3.14753 13.4518C3.0001 13.2895 2.90803 13.0845 2.88459 12.8665C2.86116 12.6485 2.90756 12.4287 3.01712 12.2388L5.88614 7.27077C5.99556 7.0811 6.16233 6.93103 6.36244 6.84213C6.56255 6.75323 6.7857 6.73009 6.9998 6.77604L10.6326 7.56057C11.0715 7.26456 11.531 6.99753 12.0092 6.76362L13.1477 3.22806C13.2145 3.02011 13.3454 2.83864 13.5217 2.70962C13.6979 2.5806 13.9105 2.51065 14.1289 2.50977H19.8669H19.869ZM19.1114 4.57977H14.8886L13.7128 8.23746L12.92 8.62455C12.5303 8.81527 12.154 9.03244 11.7939 9.27453L11.0611 9.77133L7.30202 8.95989L5.19062 12.6196L7.76777 15.4721L7.70567 16.3498C7.67592 16.7826 7.67592 17.2169 7.70567 17.6497L7.76777 18.5274L5.18648 21.3799L7.29995 25.0396L11.0591 24.2303L11.7918 24.725C12.1519 24.9671 12.5282 25.1843 12.9179 25.375L13.7107 25.7621L14.8886 29.4198H19.1155L20.2954 25.76L21.0861 25.375C21.4755 25.1847 21.851 24.9675 22.2102 24.725L22.9409 24.2303L26.7021 25.0396L28.8135 21.3799L26.2342 18.5274L26.2963 17.6497C26.3262 17.2163 26.3262 16.7812 26.2963 16.3477L26.2342 15.47L28.8155 12.6196L26.7021 8.95989L22.9409 9.76719L22.2102 9.27453C21.8511 9.03195 21.4755 8.81476 21.0861 8.62455L20.2954 8.23953L19.1134 4.57977H19.1114ZM17 10.7898C18.647 10.7898 20.2265 11.444 21.3911 12.6086C22.5557 13.7732 23.21 15.3528 23.21 16.9998C23.21 18.6468 22.5557 20.2263 21.3911 21.3909C20.2265 22.5555 18.647 23.2098 17 23.2098C15.353 23.2098 13.7734 22.5555 12.6088 21.3909C11.4442 20.2263 10.79 18.6468 10.79 16.9998C10.79 15.3528 11.4442 13.7732 12.6088 12.6086C13.7734 11.444 15.353 10.7898 17 10.7898ZM17 12.8598C15.902 12.8598 14.8489 13.2959 14.0725 14.0723C13.2961 14.8487 12.86 15.9018 12.86 16.9998C12.86 18.0978 13.2961 19.1508 14.0725 19.9272C14.8489 20.7036 15.902 21.1398 17 21.1398C18.098 21.1398 19.151 20.7036 19.9274 19.9272C20.7038 19.1508 21.14 18.0978 21.14 16.9998C21.14 15.9018 20.7038 14.8487 19.9274 14.0723C19.151 13.2959 18.098 12.8598 17 12.8598Z" fill="#34364A"/>
</svg>
