<svg width="36" height="36" viewBox="0 0 36 36" fill="none" xmlns="http://www.w3.org/2000/svg">
<path d="M15.075 3.79493L6.04503 9.68993C3.15003 11.5799 3.15003 15.8099 6.04503 17.6999L15.075 23.5949C16.695 24.6599 19.365 24.6599 20.985 23.5949L29.97 17.6999C32.85 15.8099 32.85 11.5949 29.97 9.70493L20.985 3.80993C19.365 2.72993 16.695 2.72993 15.075 3.79493Z" stroke="#34364A" stroke-width="2.25" stroke-linecap="round" stroke-linejoin="round"/>
<path d="M8.44501 19.6199L8.43001 26.6549C8.43001 28.5599 9.90001 30.5999 11.7 31.1999L16.485 32.7899C17.31 33.0599 18.675 33.0599 19.515 32.7899L24.3 31.1999C26.1 30.5999 27.57 28.5599 27.57 26.6549V19.6949" stroke="#34364A" stroke-width="2.25" stroke-linecap="round" stroke-linejoin="round"/>
<path d="M32.1 22.5V13.5" stroke="#34364A" stroke-width="2.25" stroke-linecap="round" stroke-linejoin="round"/>
</svg>
