<svg width="26" height="25" viewBox="0 0 26 25" fill="none" xmlns="http://www.w3.org/2000/svg">
<rect x="0.5" width="25" height="25" rx="12.5" fill="#34364A"/>
<path d="M8.74756 16.416C8.74756 16.722 8.87806 16.965 9.13906 17.145C9.28306 17.226 9.43606 17.2665 9.59806 17.2665C9.72406 17.2665 9.85006 17.235 9.97606 17.172L16.7936 13.77C16.9286 13.698 17.0411 13.5945 17.1311 13.4595C17.2211 13.3245 17.2616 13.1715 17.2526 13.0005C17.2436 12.8295 17.2031 12.681 17.1311 12.555C17.0591 12.429 16.9466 12.3255 16.7936 12.2445L9.97606 8.84255C9.85006 8.77955 9.72406 8.74805 9.59806 8.74805C9.44506 8.74805 9.29206 8.78855 9.13906 8.86955C8.87806 9.04055 8.74756 9.28355 8.74756 9.59855V16.416Z" fill="#F6F8FD"/>
</svg>
