<svg width="146" height="46" viewBox="0 0 146 46" fill="none" xmlns="http://www.w3.org/2000/svg">
<path d="M55.1884 22.7C56.4084 22.96 57.3884 23.57 58.1284 24.53C58.8684 25.47 59.2384 26.55 59.2384 27.77C59.2384 29.53 58.6184 30.93 57.3784 31.97C56.1584 32.99 54.4484 33.5 52.2484 33.5H42.4384V12.44H51.9184C54.0584 12.44 55.7284 12.93 56.9284 13.91C58.1484 14.89 58.7584 16.22 58.7584 17.9C58.7584 19.14 58.4284 20.17 57.7684 20.99C57.1284 21.81 56.2684 22.38 55.1884 22.7ZM47.5684 20.96H50.9284C51.7684 20.96 52.4084 20.78 52.8484 20.42C53.3084 20.04 53.5384 19.49 53.5384 18.77C53.5384 18.05 53.3084 17.5 52.8484 17.12C52.4084 16.74 51.7684 16.55 50.9284 16.55H47.5684V20.96ZM51.3484 29.36C52.2084 29.36 52.8684 29.17 53.3284 28.79C53.8084 28.39 54.0484 27.82 54.0484 27.08C54.0484 26.34 53.7984 25.76 53.2984 25.34C52.8184 24.92 52.1484 24.71 51.2884 24.71H47.5684V29.36H51.3484ZM78.7438 16.76V33.5H73.6138V31.22C73.0938 31.96 72.3838 32.56 71.4838 33.02C70.6038 33.46 69.6238 33.68 68.5438 33.68C67.2638 33.68 66.1338 33.4 65.1538 32.84C64.1738 32.26 63.4138 31.43 62.8738 30.35C62.3338 29.27 62.0638 28 62.0638 26.54V16.76H67.1638V25.85C67.1638 26.97 67.4538 27.84 68.0338 28.46C68.6138 29.08 69.3938 29.39 70.3738 29.39C71.3738 29.39 72.1638 29.08 72.7438 28.46C73.3238 27.84 73.6138 26.97 73.6138 25.85V16.76H78.7438ZM85.0086 15.02C84.1086 15.02 83.3686 14.76 82.7886 14.24C82.2286 13.7 81.9486 13.04 81.9486 12.26C81.9486 11.46 82.2286 10.8 82.7886 10.28C83.3686 9.74 84.1086 9.47 85.0086 9.47C85.8886 9.47 86.6086 9.74 87.1686 10.28C87.7486 10.8 88.0386 11.46 88.0386 12.26C88.0386 13.04 87.7486 13.7 87.1686 14.24C86.6086 14.76 85.8886 15.02 85.0086 15.02ZM87.5586 16.76V33.5H82.4286V16.76H87.5586ZM96.4063 11.3V33.5H91.2763V11.3H96.4063ZM99.1039 25.1C99.1039 23.38 99.4239 21.87 100.064 20.57C100.724 19.27 101.614 18.27 102.734 17.57C103.854 16.87 105.104 16.52 106.484 16.52C107.584 16.52 108.584 16.75 109.484 17.21C110.404 17.67 111.124 18.29 111.644 19.07V11.3H116.774V33.5H111.644V31.1C111.164 31.9 110.474 32.54 109.574 33.02C108.694 33.5 107.664 33.74 106.484 33.74C105.104 33.74 103.854 33.39 102.734 32.69C101.614 31.97 100.724 30.96 100.064 29.66C99.4239 28.34 99.1039 26.82 99.1039 25.1ZM111.644 25.13C111.644 23.85 111.284 22.84 110.564 22.1C109.864 21.36 109.004 20.99 107.984 20.99C106.964 20.99 106.094 21.36 105.374 22.1C104.674 22.82 104.324 23.82 104.324 25.1C104.324 26.38 104.674 27.4 105.374 28.16C106.094 28.9 106.964 29.27 107.984 29.27C109.004 29.27 109.864 28.9 110.564 28.16C111.284 27.42 111.644 26.41 111.644 25.13ZM125.615 12.44V33.5H120.485V12.44H125.615ZM144.483 12.44V16.55H138.903V33.5H133.773V16.55H128.193V12.44H144.483Z" fill="#34364A"/>
<path d="M19.6052 36.9884H7.55147C7.53975 37.142 7.53186 37.2968 7.53186 37.4534C7.53186 40.7875 10.2444 43.4999 13.5783 43.4999C16.9123 43.4999 19.6248 40.7874 19.6248 37.4534C19.6248 37.2969 19.6169 37.142 19.6052 36.9884Z" fill="#2447F9"/>
<path d="M23.1455 7.44305C20.5824 4.89789 17.1889 3.5 13.5793 3.5C13.5466 3.5 13.5135 3.50016 13.4807 3.50031C9.9437 3.52531 6.59862 4.91414 4.06159 7.41109C1.52401 9.90867 0.0827578 13.2312 0.00353903 16.7673C-0.0797422 20.4793 1.30924 23.9771 3.9144 26.6165C5.3262 28.0467 6.13596 29.9615 6.13651 31.8703V34.1977H21.0203V31.8703C21.0207 29.9504 21.8168 28.0494 23.2046 26.6545C25.7532 24.0927 27.1567 20.6918 27.1567 17.0784C27.1567 13.4334 25.7322 10.0114 23.1455 7.44305ZM10.9835 19.9088L9.01026 21.882L5.09338 17.9651L9.01034 14.0482L10.9836 16.0215L9.04002 17.965L10.9835 19.9088ZM13.839 23.5H10.9872L13.3178 12.4302H16.1696L13.839 23.5ZM18.1464 21.8819L16.1731 19.9086L18.1167 17.965L16.1731 16.0216L18.1464 14.0483L22.0634 17.9651L18.1464 21.8819Z" fill="#2447F9"/>
</svg>
